<svg xmlns="http://www.w3.org/2000/svg" width="512" height="512" viewBox="0 0 512 512" role="img" aria-label="CiudadConecta">
  <defs>
    <linearGradient id="bg" x1="0" y1="0" x2="1" y2="1">
      <stop offset="0" stop-color="#006a62"/>
      <stop offset="1" stop-color="#0a8a7e"/>
    </linearGradient>
    <linearGradient id="pin" x1="0" y1="0" x2="0" y2="1">
      <stop offset="0" stop-color="#61f9e9"/>
      <stop offset="1" stop-color="#40e0d0"/>
    </linearGradient>
  </defs>
  <rect width="512" height="512" fill="url(#bg)"/>
  <!-- connectivity arcs -->
  <g fill="none" stroke="#ffffff" stroke-opacity="0.18" stroke-width="14" stroke-linecap="round">
    <path d="M120 392 A 190 190 0 0 1 392 120"/>
    <path d="M168 392 A 150 150 0 0 1 392 168"/>
  </g>
  <!-- location pin -->
  <path d="M256 104c-66 0-120 52-120 117 0 86 105 168 116 175a7 7 0 0 0 8 0c11-7 116-89 116-175 0-65-54-117-120-117z" fill="url(#pin)"/>
  <circle cx="256" cy="220" r="46" fill="#006a62"/>
  <circle cx="256" cy="220" r="20" fill="#ffffff"/>
</svg>
